<?xml version="1.0" standalone="no"?>
<!DOCTYPE svg PUBLIC "-//W3C//DTD SVG 20010904//EN"
 "http://www.w3.org/TR/2001/REC-SVG-20010904/DTD/svg10.dtd">
<svg version="1.0" xmlns="http://www.w3.org/2000/svg"
 width="814.000000pt" height="814.000000pt" viewBox="0 0 814.000000 814.000000"
 preserveAspectRatio="xMidYMid meet">
<metadata>
Created by potrace 1.11, written by Peter Selinger 2001-2013
</metadata>
<g transform="translate(0.000000,814.000000) scale(0.100000,-0.100000)"
fill="#000000" stroke="none">
<path d="M5455 6589 c-109 -8 -166 -21 -263 -60 -144 -57 -164 -75 -725 -629
-186 -184 -342 -336 -347 -338 -5 -2 -179 165 -387 371 -208 207 -407 403
-443 436 -87 82 -193 147 -298 184 -80 28 -101 31 -252 35 -199 5 -279 -10
-430 -84 -114 -56 -69 -13 -1185 -1130 -538 -539 -780 -788 -803 -827 -50 -82
-99 -203 -116 -282 -18 -88 -14 -311 8 -409 16 -70 74 -195 125 -269 34 -49
1744 -1769 1829 -1839 65 -55 177 -115 271 -147 184 -63 450 -47 635 38 97 45
175 110 439 371 488 482 590 580 601 580 14 -1 107 -89 423 -400 370 -364 464
-453 518 -490 62 -43 182 -93 269 -113 89 -20 297 -21 391 -1 86 18 201 67
278 118 52 34 1375 1346 1763 1746 143 148 186 213 238 359 30 84 31 90 31
271 0 181 -1 187 -31 271 -51 144 -96 212 -228 349 -164 168 -1281 1285 -1542
1540 -215 211 -255 242 -384 293 -123 49 -241 66 -385 56z m-2654 -675 c34
-17 829 -807 829 -823 0 -6 -87 -99 -192 -206 l-193 -195 -65 0 c-193 -1 -370
-97 -469 -255 -125 -199 -89 -479 82 -645 109 -107 240 -158 391 -154 281 8
484 211 511 511 l7 72 662 658 c824 818 1026 1016 1059 1038 32 21 152 24 188
5 13 -7 105 -92 204 -189 359 -352 1501 -1497 1529 -1534 24 -32 30 -49 32
-104 1 -36 -3 -79 -9 -96 -7 -21 -304 -325 -871 -892 -795 -795 -864 -862
-906 -873 -40 -10 -60 -10 -128 -4 -31 3 -111 77 -494 460 l-378 376 94 95
c52 53 158 162 237 243 l144 146 80 5 c174 9 327 103 422 260 52 86 63 133 63
273 0 100 -4 133 -20 174 -60 152 -179 269 -326 321 -88 31 -253 35 -329 9
-239 -82 -381 -286 -385 -550 0 -39 -6 -51 -44 -90 -24 -25 -419 -419 -878
-876 -817 -815 -835 -832 -884 -842 -27 -5 -62 -9 -79 -7 -16 2 -36 3 -42 4
-23 2 -452 421 -1203 1176 -489 492 -572 578 -582 603 -12 30 -8 112 6 147 16
38 245 273 946 970 723 720 809 802 841 808 38 7 120 -3 150 -19z"/>
</g>
</svg>
